<?xml version="1.0" standalone="no"?>
<!DOCTYPE svg PUBLIC "-//W3C//DTD SVG 20010904//EN"
 "http://www.w3.org/TR/2001/REC-SVG-20010904/DTD/svg10.dtd">
<svg version="1.0" xmlns="http://www.w3.org/2000/svg"
 width="512.000000pt" height="512.000000pt" viewBox="0 0 512.000000 512.000000"
 preserveAspectRatio="xMidYMid meet">
<metadata>
Created by potrace 1.16, written by Peter Selinger 2001-2019
</metadata>
<g transform="translate(0.000000,512.000000) scale(0.100000,-0.100000)"
fill="#000000" stroke="none">
<path d="M2450 5020 c-165 -44 -330 -150 -434 -281 -104 -131 -176 -317 -176
-457 0 -62 -1 -64 -22 -56 -13 4 -210 9 -440 11 -391 4 -421 3 -502 -16 -309
-74 -543 -308 -617 -619 -17 -69 -20 -111 -17 -202 3 -104 6 -121 34 -180 40
-84 118 -168 191 -208 34 -18 120 -46 206 -68 l148 -37 -18 -26 c-71 -108 -83
-135 -83 -192 0 -32 5 -70 11 -86 15 -40 77 -101 116 -114 l33 -11 0 -133 c0
-105 4 -147 20 -198 53 -173 230 -306 409 -308 66 0 61 -4 -89 -50 -147 -46
-353 -152 -480 -247 -255 -192 -453 -457 -563 -752 -65 -175 -89 -310 -95
-523 l-4 -187 1201 0 1201 0 0 80 0 80 -719 0 -720 0 -3 317 c-3 304 -4 321
-26 383 -26 70 -74 154 -121 210 l-30 35 -62 -61 -61 -61 38 -49 c88 -116 104
-196 104 -546 l0 -228 -317 0 -316 0 6 102 c15 233 99 475 242 693 145 221
345 396 590 515 92 45 263 107 268 99 1 -2 10 -35 20 -72 29 -119 103 -209
217 -265 50 -25 65 -27 170 -27 105 0 120 2 170 27 114 56 188 146 217 265 10
37 18 70 20 72 3 6 143 -39 143 -46 0 -4 -23 -31 -52 -60 l-52 -53 64 -65 64
-65 -87 0 -87 0 0 -320 0 -320 87 0 87 0 -64 -65 -65 -65 233 -232 232 -233
65 65 65 64 0 -87 0 -87 320 0 320 0 0 87 0 87 65 -64 65 -65 232 233 233 232
-65 65 -64 65 87 0 87 0 0 120 0 120 378 0 c418 0 416 0 494 69 59 52 88 121
88 211 0 90 -29 159 -88 211 -70 62 -98 69 -290 69 -193 0 -236 10 -248 54
-18 72 28 106 143 106 148 1 243 95 243 240 0 72 -19 122 -63 169 -64 67 -81
71 -377 71 -146 0 -283 5 -304 10 -73 17 -118 67 -131 147 l-7 42 54 -21 c44
-16 70 -19 153 -16 91 3 107 7 175 40 147 71 248 214 258 366 l5 72 42 0 c100
0 226 61 307 148 91 97 128 194 128 334 0 144 -48 257 -150 352 l-49 46 49 46
c102 96 150 208 150 353 0 147 -46 258 -148 353 -84 79 -195 128 -287 128
l-42 0 -5 73 c-10 151 -117 301 -265 369 -57 27 -83 32 -165 36 -109 5 -166
-9 -242 -59 l-46 -31 -46 31 c-76 50 -133 64 -242 59 -81 -4 -108 -9 -163 -35
-36 -17 -84 -46 -105 -66 -36 -32 -41 -34 -59 -20 -36 26 -113 62 -192 90 -73
25 -91 27 -293 30 -189 2 -224 0 -290 -17z m495 -166 c167 -43 332 -175 413
-330 58 -112 75 -192 70 -329 -8 -210 -59 -302 -303 -545 l-165 -165 0 218 0
217 70 0 c82 0 130 17 179 63 48 46 71 101 71 175 0 145 -95 241 -238 242
-149 0 -241 -94 -242 -247 l0 -73 -80 0 -80 0 0 73 c-1 153 -93 247 -242 247
-143 -1 -238 -97 -238 -242 0 -74 23 -129 71 -175 49 -46 97 -63 179 -63 l70
0 0 -217 0 -218 -165 165 c-244 243 -295 335 -303 545 -5 137 12 217 70 329
77 148 242 283 398 327 114 31 349 33 465 3z m724 -4 c21 -10 50 -33 65 -50
l26 -32 0 -1088 0 -1088 -26 -32 c-67 -78 -178 -93 -285 -37 -99 51 -145 122
-164 254 l-6 41 59 32 c33 18 84 54 114 80 l53 49 -62 62 -62 62 -55 -50 c-56
-51 -124 -83 -178 -83 l-28 0 0 213 0 212 79 79 79 79 52 -49 51 -48 62 63 62
62 -53 49 -53 48 41 53 c57 75 116 199 140 293 23 90 27 264 9 362 -23 124
-103 289 -183 372 -31 33 -31 34 -11 49 81 62 200 81 274 43z m521 9 c21 -7
60 -28 87 -48 57 -44 108 -138 118 -218 l5 -52 -59 -31 c-33 -18 -83 -54 -113
-80 l-53 -49 62 -62 62 -62 55 50 c72 66 132 87 230 81 83 -6 138 -30 196 -88
68 -68 85 -111 85 -220 0 -109 -17 -152 -85 -220 -58 -58 -113 -82 -196 -88
-98 -6 -158 15 -230 81 l-55 50 -62 -62 -62 -62 54 -50 55 -49 -55 -49 -54
-50 62 -62 62 -62 55 50 c72 66 132 87 230 81 83 -6 138 -30 196 -88 68 -68
85 -111 85 -220 0 -109 -17 -152 -85 -220 -58 -58 -113 -82 -196 -88 -98 -6
-158 15 -230 81 l-55 50 -62 -62 -62 -62 53 -49 c30 -26 80 -62 113 -80 l59
-31 -6 -52 c-7 -62 -40 -140 -78 -184 -15 -17 -54 -46 -88 -62 -106 -54 -217
-38 -282 39 l-26 32 0 1088 0 1088 26 32 c54 64 150 87 244 59z m-1750 -639
c22 -12 40 -60 40 -106 0 -32 -2 -34 -34 -34 -46 0 -94 18 -106 40 -36 68 32
136 100 100z m650 -10 c22 -22 26 -60 10 -90 -12 -22 -60 -40 -106 -40 -32 0
-34 2 -34 34 0 43 16 87 37 104 25 18 70 15 93 -8z m-1325 -149 c94 -20 92
-19 99 -53 10 -50 67 -177 111 -243 22 -33 108 -130 192 -216 l153 -156 0
-151 c0 -84 -2 -152 -4 -152 -3 0 -17 5 -33 11 -15 6 -50 14 -77 18 -47 6 -49
7 -61 48 -29 98 -111 190 -215 241 l-55 27 -450 5 c-333 4 -456 8 -472 17 -65
38 -83 118 -37 172 33 39 77 51 192 51 l92 0 0 80 0 80 -138 0 c-128 0 -142
-2 -190 -26 -101 -50 -151 -135 -152 -255 0 -100 31 -164 106 -223 l54 -41 0
-112 c0 -62 -3 -113 -7 -113 -14 0 -267 68 -293 78 -58 23 -108 71 -139 133
-27 54 -31 72 -31 143 0 276 193 531 468 621 29 9 83 20 120 25 89 11 704 4
767 -9z m1035 -381 l0 -240 -80 0 -80 0 0 240 0 240 80 0 80 0 0 -240z m-950
-426 c89 -42 134 -112 146 -226 l7 -65 97 -5 c73 -4 106 -10 131 -24 106 -62
106 -206 0 -268 -25 -14 -58 -20 -132 -24 l-98 -5 -3 -501 c-3 -457 -5 -505
-21 -541 -71 -157 -269 -195 -384 -74 -51 54 -65 100 -70 229 l-5 115 56 24
c87 36 177 126 226 223 22 44 40 88 40 97 0 13 -18 21 -72 34 -94 22 -94 22
-101 -10 -16 -77 -117 -177 -210 -209 -68 -23 -174 -21 -232 5 l-46 20 59 58
c85 84 115 152 120 276 l4 97 -161 0 -161 0 0 80 0 80 -56 0 c-65 0 -94 13
-94 41 0 11 23 55 52 97 89 131 97 162 98 345 l0 158 383 -3 c365 -3 384 -4
427 -24z m1110 -54 l0 -80 -240 0 -240 0 0 80 0 80 240 0 240 0 0 -80z m-34
-267 c-38 -73 -121 -123 -206 -123 -85 0 -168 50 -206 123 l-15 27 221 0 221
0 -15 -27z m196 -206 c10 -151 117 -301 265 -369 58 -27 82 -32 168 -36 83 -3
109 -1 153 16 l52 20 0 -54 c0 -121 82 -241 195 -283 51 -19 77 -21 326 -21
297 0 333 -6 345 -54 18 -71 -28 -106 -141 -106 -148 0 -244 -94 -245 -238 0
-73 19 -124 63 -171 59 -62 92 -71 277 -71 187 0 228 -8 264 -51 53 -62 20
-156 -62 -179 -22 -6 -174 -10 -369 -10 l-333 0 0 120 0 120 -87 0 -87 0 64
65 65 65 -233 232 -232 233 -65 -65 -65 -64 0 87 0 87 -320 0 -320 0 0 -87 0
-87 -65 64 -65 65 -109 -109 -109 -108 -103 36 c-57 19 -123 40 -146 46 l-43
11 0 57 0 57 53 32 c221 134 412 364 507 612 17 43 19 45 77 57 84 17 148 50
201 104 38 39 54 48 83 49 l36 1 5 -73z m-565 -58 c15 -5 -49 -144 -108 -230
-49 -74 -180 -212 -244 -258 l-45 -32 0 165 0 166 34 0 c46 0 110 24 159 60
47 35 103 110 112 151 l6 28 37 -23 c20 -12 42 -25 49 -27z m723 -872 c0 -54
35 -108 86 -132 52 -25 132 -17 176 18 l33 26 107 -106 107 -106 -26 -34 c-35
-45 -43 -125 -18 -177 24 -51 78 -86 132 -86 l43 0 0 -160 0 -160 -43 0 c-54
0 -108 -35 -132 -86 -25 -52 -17 -132 18 -177 l26 -34 -107 -106 -107 -106
-33 26 c-44 35 -124 43 -176 18 -51 -24 -86 -78 -86 -132 l0 -43 -160 0 -160
0 0 43 c0 54 -35 108 -86 132 -52 25 -132 17 -177 -18 l-34 -26 -106 107 -106
107 26 33 c35 44 43 124 18 176 -24 51 -78 86 -132 86 l-43 0 0 160 0 160 43
0 c54 0 108 35 132 86 25 52 17 132 -18 176 l-26 33 106 107 106 107 34 -26
c45 -35 125 -43 177 -18 51 24 86 78 86 132 l0 43 160 0 160 0 0 -43z"/>
<path d="M1200 2890 c0 -82 17 -130 63 -179 47 -49 100 -71 177 -71 77 0 130
22 177 71 46 49 63 97 63 179 l0 70 -80 0 -80 0 0 -35 c0 -83 -42 -127 -106
-111 -30 8 -54 57 -54 111 l0 35 -80 0 -80 0 0 -70z"/>
<path d="M2968 1501 c-74 -24 -144 -69 -200 -129 -91 -97 -128 -194 -128 -332
0 -138 37 -235 128 -332 95 -101 206 -148 352 -148 146 0 257 47 352 148 91
97 128 194 128 332 0 138 -37 235 -128 332 -57 61 -127 105 -203 129 -81 25
-222 25 -301 0z m290 -180 c54 -28 115 -88 144 -143 19 -36 23 -58 23 -138 0
-109 -17 -152 -85 -220 -68 -68 -111 -85 -220 -85 -80 0 -102 4 -138 23 -55
30 -115 90 -143 144 -27 52 -36 164 -20 225 24 90 116 186 205 213 54 17 186
6 234 -19z"/>
<path d="M4055 541 c-87 -40 -135 -120 -135 -223 1 -142 97 -238 240 -238 144
0 240 96 240 240 0 104 -53 187 -142 224 -52 22 -153 20 -203 -3z m155 -171
c43 -43 11 -120 -50 -120 -38 0 -70 32 -70 70 0 38 32 70 70 70 17 0 39 -9 50
-20z"/>
<path d="M4695 541 c-87 -40 -135 -120 -135 -223 1 -142 97 -238 240 -238 144
0 240 96 240 240 0 104 -53 187 -142 224 -52 22 -153 20 -203 -3z m155 -171
c43 -43 11 -120 -50 -120 -38 0 -70 32 -70 70 0 38 32 70 70 70 17 0 39 -9 50
-20z"/>
</g>
</svg>
